<?xml version="1.0" encoding="utf-8"?>
<!-- Generator: Adobe Illustrator 24.0.3, SVG Export Plug-In . SVG Version: 6.00 Build 0)  -->
<svg version="1.1" id="Layer_1" xmlns="http://www.w3.org/2000/svg" xmlns:xlink="http://www.w3.org/1999/xlink" x="0px" y="0px"
	 viewBox="0 0 42.4 5.8" style="enable-background:new 0 0 42.4 5.8;" xml:space="preserve">
<style type="text/css">
	.st0{fill:#FFFFFF;}
	.st1{fill:#F26122;}
	.st2{fill:#EA1D25;}
	.st3{fill:#F69E1E;}
</style>
<title>1.1 With black text</title>
<path class="st0" d="M22.8,5.7h-1c0-0.2-0.1-0.4-0.1-0.5c0-0.1,0-0.1-0.1-0.1c-0.4,0-0.8,0-1.2,0c0,0-0.1,0-0.1,0.1
	c-0.1,0.2-0.1,0.3-0.2,0.5c0,0,0,0.1-0.1,0.1c-0.4,0-0.7,0-1.1,0c0.1-0.2,0.1-0.3,0.2-0.5c0.5-1.1,0.9-2.3,1.4-3.4
	c0.1-0.2,0.3-0.4,0.5-0.3c0.3,0,0.6,0,0.9,0C22,1.6,22,1.7,22,1.9c0.2,1.1,0.5,2.2,0.7,3.3C22.8,5.4,22.8,5.5,22.8,5.7L22.8,5.7z
	 M21.5,4.2l-0.3-1.5l0,0l-0.6,1.5L21.5,4.2z"/>
<path class="st0" d="M18.4,1.4c0.1,0,0.3,0,0.4,0.1c0.1,0,0.2,0.1,0.4,0.1L19,2.5c-0.2,0-0.3-0.1-0.5-0.1c-0.2-0.1-0.5-0.1-0.7,0
	c-0.1,0-0.2,0.1-0.3,0.1c-0.1,0.1-0.1,0.2,0,0.3c0,0,0,0,0,0C17.6,2.9,17.7,3,17.8,3c0.2,0.1,0.5,0.2,0.7,0.4
	c0.3,0.2,0.4,0.4,0.5,0.7c0.1,0.5-0.2,1-0.6,1.3c-0.3,0.2-0.6,0.3-1,0.3c-0.5,0-1,0-1.4-0.2c0,0-0.1,0-0.1,0c0,0,0,0,0,0l0.2-0.9
	c0.1,0,0.2,0.1,0.2,0.1c0.3,0.2,0.7,0.2,1.1,0.1c0.1,0,0.2-0.1,0.3-0.1c0.1-0.1,0.2-0.3,0.1-0.4c0,0,0-0.1-0.1-0.1
	c-0.1-0.1-0.2-0.2-0.4-0.2c-0.2-0.1-0.4-0.2-0.6-0.4c-0.2-0.2-0.4-0.4-0.4-0.7c-0.1-0.4,0.1-0.8,0.5-1.1c0.3-0.2,0.7-0.4,1-0.4
	c0,0,0,0,0.1,0L18.4,1.4z"/>
<path class="st0" d="M14.5,1.5c-0.1,0.1-0.1,0.3-0.2,0.4c-0.5,1.2-1,2.5-1.6,3.7c0,0.1-0.1,0.1-0.1,0.1c-0.3,0-0.7,0-1,0
	c-0.1,0-0.1,0-0.1-0.1c-0.3-1.1-0.6-2.2-0.8-3.3c0-0.2-0.2-0.3-0.3-0.4C10,1.8,9.7,1.7,9.4,1.6l0,0c0-0.1,0-0.1,0.1-0.1
	c0.6,0,1.2,0,1.7,0c0.3,0,0.5,0.2,0.5,0.4c0.1,0.8,0.3,1.5,0.4,2.3c0,0,0,0.1,0,0.1c0,0,0,0,0-0.1c0.4-0.9,0.7-1.8,1.1-2.7
	c0,0,0.1-0.1,0.1-0.1C13.7,1.5,14.1,1.5,14.5,1.5C14.4,1.5,14.4,1.5,14.5,1.5z"/>
<path class="st0" d="M14,5.7l0.9-4.2H16c0,0.2-0.1,0.4-0.1,0.6c-0.2,1.2-0.5,2.3-0.7,3.5c0,0.1,0,0.1-0.1,0.1
	C14.7,5.7,14.4,5.7,14,5.7L14,5.7z"/>
<path class="st0" d="M7.4,5L7.4,5L7.4,5L7.4,5L7.4,5L7.4,5L7.4,5L7.4,5L7.4,5z M7.6,5L7.6,5L7.6,5L7.6,5L7.6,5L7.6,5L7.6,5L7.6,5
	L7.6,5L7.6,5L7.6,5L7.6,5L7.6,5L7.6,5z"/>
<rect x="2.4" y="1.9" class="st1" width="2" height="3.3"/>
<path class="st2" d="M2.6,3.6c0-0.6,0.3-1.2,0.8-1.6C2.5,1.2,1.2,1.4,0.4,2.3s-0.6,2.2,0.4,2.9c0.8,0.6,1.8,0.6,2.6,0
	C2.9,4.8,2.6,4.2,2.6,3.6z"/>
<path class="st3" d="M6.8,3.6c0,1.2-0.9,2.1-2.1,2.1c-0.5,0-0.9-0.2-1.3-0.4c0.9-0.7,1.1-2,0.4-2.9C3.6,2.2,3.5,2,3.4,1.9
	c0.9-0.7,2.2-0.6,2.9,0.4C6.6,2.7,6.8,3.1,6.8,3.6L6.8,3.6z"/>
<rect x="26.2" class="st0" width="0.2" height="5.7"/>
<rect x="35.2" y="2.4" class="st0" width="0.9" height="3.3"/>
<polygon class="st0" points="35.2,0.5 35.2,1 35.2,1.4 36.2,1.4 36.2,1 36.2,0.5 36.2,0 35.2,0 "/>
<polygon class="st0" points="39.2,4 40,2.9 40.4,2.4 39.2,2.4 38.6,3.2 37.9,2.4 36.8,2.4 37.2,2.9 38,4 37.2,5.2 36.8,5.7 38,5.7 
	38.6,4.8 39.2,5.7 40.4,5.7 40,5.2 "/>
<polygon class="st0" points="41.1,1.4 41.3,1.1 40.6,0.5 40.3,0.9 40,1.3 39.7,1.6 40.5,2.2 40.8,1.8 "/>
<polygon class="st0" points="42,1.8 41.5,2 41.1,2.2 40.7,2.4 41.1,3.3 41.6,3.1 42,2.8 42.4,2.6 "/>
<rect x="33.3" y="0" class="st0" width="0.9" height="5.7"/>
<polygon class="st0" points="31.5,4 32.3,2.9 32.7,2.4 31.6,2.4 30.7,3.6 30.7,0 29.7,0 29.7,4.9 29.7,5.7 29.7,5.7 30.7,5.7 
	30.7,5.2 30.9,4.8 31.6,5.7 32.7,5.7 32.3,5.2 "/>
</svg>
